<svg xmlns="http://www.w3.org/2000/svg" xmlns:xlink="http://www.w3.org/1999/xlink" width="500" zoomAndPan="magnify" viewBox="0 0 375 374.999991" height="500" preserveAspectRatio="xMidYMid meet" version="1.0"><defs><g/><clipPath id="239aaae8f1"><path d="M 0 37 L 375 37 L 375 365.625 L 0 365.625 Z M 0 37 " clip-rule="nonzero"/></clipPath><clipPath id="5fd161cd8c"><path d="M 14.867188 89.890625 C -15.539062 139.984375 5.882812 188.742188 32.800781 214.617188 L 190.199219 365.625 L 344.273438 215.15625 C 369.308594 187.320312 378.90625 157.792969 373.574219 124.914062 C 366.214844 79.429688 328.734375 44.144531 282.433594 39.105469 C 254.035156 36.046875 226.601562 44.082031 205.195312 61.875 C 199.429688 66.660156 194.28125 72.011719 189.792969 77.828125 C 184.464844 71.207031 178.21875 65.148438 171.15625 59.777344 C 146.535156 41.066406 115.199219 33.640625 85.09375 39.417969 C 56.582031 44.925781 30.992188 63.316406 14.867188 89.890625 Z M 14.867188 89.890625 " clip-rule="nonzero"/></clipPath></defs><g clip-path="url(#239aaae8f1)"><g clip-path="url(#5fd161cd8c)"><path fill="#000000" d="M 0 37.5 L 375 37.5 L 375 365.625 L 0 365.625 Z M 0 37.5 " fill-opacity="1" fill-rule="nonzero"/></g></g><g fill="#ffffff" fill-opacity="1"><g transform="translate(68.15395, 248.380821)"><g><path d="M 67.125 -139.578125 L 67.125 -27.328125 C 67.125 -18.835938 69.070312 -13.085938 72.96875 -10.078125 C 76.863281 -7.078125 83.410156 -5.578125 92.609375 -5.578125 L 92.609375 0 C 89.066406 -0.175781 83.890625 -0.394531 77.078125 -0.65625 C 70.265625 -0.925781 63.234375 -1.0625 55.984375 -1.0625 C 47.847656 -1.0625 40.019531 -0.925781 32.5 -0.65625 C 24.988281 -0.394531 19.195312 -0.175781 15.125 0 L 15.125 -5.578125 C 23.96875 -5.578125 30.863281 -7.035156 35.8125 -9.953125 C 40.769531 -12.867188 43.25 -18.660156 43.25 -27.328125 L 43.25 -91.546875 C 43.25 -100.035156 42.363281 -106.3125 40.59375 -110.375 C 38.820312 -114.445312 35.679688 -117.101562 31.171875 -118.34375 C 26.660156 -119.582031 20.425781 -120.203125 12.46875 -120.203125 L 12.46875 -126.03125 C 25.207031 -126.382812 35.820312 -127.535156 44.3125 -129.484375 C 52.800781 -131.429688 60.40625 -134.796875 67.125 -139.578125 Z M 67.125 -139.578125 "/></g></g></g><g fill="#ffffff" fill-opacity="1"><g transform="translate(166.331294, 248.380821)"><g><path d="M 80.9375 -140.359375 C 93.488281 -140.359375 104.582031 -137.484375 114.21875 -131.734375 C 123.863281 -125.992188 131.425781 -117.90625 136.90625 -107.46875 C 142.394531 -97.03125 145.140625 -84.734375 145.140625 -70.578125 C 145.140625 -56.429688 142.304688 -43.738281 136.640625 -32.5 C 130.984375 -21.269531 123.15625 -12.425781 113.15625 -5.96875 C 103.164062 0.488281 91.453125 3.71875 78.015625 3.71875 C 65.804688 3.71875 54.835938 0.84375 45.109375 -4.90625 C 35.378906 -10.65625 27.726562 -18.789062 22.15625 -29.3125 C 16.582031 -39.84375 13.796875 -52.179688 13.796875 -66.328125 C 13.796875 -80.304688 16.582031 -92.867188 22.15625 -104.015625 C 27.726562 -115.160156 35.554688 -124.003906 45.640625 -130.546875 C 55.722656 -137.085938 67.488281 -140.359375 80.9375 -140.359375 Z M 78.546875 -135.59375 C 67.222656 -135.59375 57.890625 -129.578125 50.546875 -117.546875 C 43.203125 -105.515625 39.53125 -88.707031 39.53125 -67.125 C 39.53125 -51.207031 41.390625 -38.425781 45.109375 -28.78125 C 48.828125 -19.144531 53.820312 -12.113281 60.09375 -7.6875 C 66.375 -3.269531 73.144531 -1.0625 80.40625 -1.0625 C 91.894531 -1.0625 101.265625 -7.117188 108.515625 -19.234375 C 115.773438 -31.347656 119.40625 -48.195312 119.40625 -69.78125 C 119.40625 -85.707031 117.546875 -98.488281 113.828125 -108.125 C 110.117188 -117.769531 105.164062 -124.757812 98.96875 -129.09375 C 92.78125 -133.425781 85.972656 -135.59375 78.546875 -135.59375 Z M 78.546875 -135.59375 "/></g></g></g></svg>