<?xml version="1.0" standalone="no"?>
<!DOCTYPE svg PUBLIC "-//W3C//DTD SVG 20010904//EN"
 "http://www.w3.org/TR/2001/REC-SVG-20010904/DTD/svg10.dtd">
<svg version="1.0" xmlns="http://www.w3.org/2000/svg"
 width="512.000000pt" height="512.000000pt" viewBox="0 0 512.000000 512.000000"
 preserveAspectRatio="xMidYMid meet">

<g transform="translate(0.000000,512.000000) scale(0.100000,-0.100000)"
fill="#000000" stroke="none">
<path d="M2171 5106 c-49 -18 -111 -74 -132 -120 -16 -35 -19 -67 -19 -233 l0
-192 26 -20 c33 -26 65 -27 95 -2 23 19 24 25 29 204 4 129 9 189 18 200 32
38 110 27 131 -19 8 -18 11 -314 11 -1068 0 -1040 0 -1043 -21 -1070 -27 -35
-86 -36 -117 -3 l-22 23 0 741 c0 734 0 741 -21 767 -23 30 -72 35 -105 12
-18 -14 -19 -36 -24 -667 l-5 -653 -58 -15 c-53 -14 -60 -14 -68 0 -5 9 -21
22 -37 28 -24 10 -40 8 -111 -19 -46 -17 -91 -34 -100 -39 -12 -7 -27 1 -62
34 -80 75 -119 90 -234 90 -89 0 -106 -3 -150 -27 -28 -14 -70 -47 -94 -73
-62 -67 -84 -124 -87 -219 l-2 -79 -43 -32 c-82 -59 -129 -153 -129 -256 0
-62 27 -146 59 -188 l19 -25 -82 -48 c-262 -157 -442 -418 -488 -710 l-12 -76
-86 -4 c-61 -3 -97 -10 -127 -26 -50 -26 -100 -84 -113 -132 -16 -56 -12 -277
6 -345 31 -121 114 -220 229 -275 60 -29 83 -34 168 -38 l98 -5 135 -193 c169
-242 226 -294 356 -324 59 -13 3057 -13 3116 0 63 15 126 47 175 90 24 21 105
126 180 233 l136 194 100 5 c88 4 109 9 168 38 114 57 196 155 227 275 18 68
22 289 6 345 -13 48 -63 106 -113 132 -30 16 -66 23 -127 26 l-86 4 -12 80
c-33 207 -139 408 -297 561 -46 45 -65 71 -65 89 0 24 3 25 68 31 91 7 160 35
283 113 124 78 156 106 180 159 30 64 21 133 -23 197 -26 38 -251 178 -328
205 -36 12 -88 23 -116 23 l-51 0 -6 65 c-8 87 -40 161 -127 301 -87 137 -121
166 -209 172 -44 3 -67 -1 -97 -16 -51 -26 -70 -48 -145 -167 -79 -126 -108
-190 -116 -254 -3 -28 -7 -51 -9 -51 -2 0 -28 11 -57 24 -54 23 -54 24 -59 73
-10 102 -86 204 -187 252 -47 22 -70 26 -141 26 -101 0 -154 -21 -224 -85
l-45 -42 -117 16 c-63 9 -147 16 -184 16 -58 0 -72 -3 -90 -22 -11 -12 -20
-28 -20 -35 0 -9 -16 -13 -55 -13 l-55 0 0 244 0 245 53 -6 c59 -6 124 9 158
36 22 18 24 18 77 -10 140 -74 302 5 333 161 l11 57 137 6 c198 9 270 34 406
139 162 125 119 118 772 118 467 0 549 2 580 15 89 37 112 88 113 242 0 61 -5
124 -11 140 -11 31 -53 78 -84 96 -14 9 -185 13 -600 17 -671 6 -608 -4 -770
120 -144 110 -235 140 -432 140 l-113 0 0 33 c-1 53 -19 117 -45 155 -69 101
-214 132 -311 66 -35 -24 -36 -24 -62 -6 -71 50 -154 55 -233 15 l-54 -28 -54
28 c-60 30 -121 34 -180 13z m444 -161 l25 -24 0 -586 0 -586 -25 -24 c-39
-40 -96 -32 -120 16 -13 24 -15 117 -15 593 0 394 3 572 11 590 22 48 86 60
124 21z m312 1 l28 -24 0 -587 0 -587 -28 -24 c-36 -30 -68 -30 -104 0 l-28
24 0 587 0 587 28 24 c36 30 68 30 104 0z m445 -277 c70 -15 120 -41 198 -103
83 -67 124 -91 196 -118 58 -22 72 -23 629 -28 l570 -5 0 -100 0 -100 -570 -5
c-433 -5 -580 -9 -610 -19 -68 -22 -126 -57 -222 -130 -118 -89 -156 -101
-325 -101 l-128 0 0 64 0 63 87 5 c79 4 88 7 110 32 29 34 29 58 -1 93 -23 26
-31 28 -110 32 l-86 3 0 69 0 69 89 0 c85 0 91 1 110 26 28 36 26 60 -8 95
-28 27 -34 29 -110 29 l-81 0 0 70 0 70 105 0 c57 0 128 -5 157 -11z m776
-1554 c78 -119 111 -191 118 -262 l7 -61 -61 -31 -60 -30 -4 120 c-3 119 -3
121 -32 146 -23 19 -36 23 -60 19 -54 -11 -61 -26 -66 -155 l-5 -118 -57 25
-58 25 0 51 c0 30 10 73 23 106 24 56 131 229 151 243 27 18 53 -1 104 -78z
m-811 -36 c34 -13 80 -55 99 -91 8 -15 14 -51 14 -80 0 -105 -73 -178 -178
-178 -59 0 -94 15 -134 57 -49 52 -61 122 -33 190 21 50 42 72 90 94 45 21
100 24 142 8z m-1907 -158 c91 -48 121 -161 67 -253 -85 -145 -306 -99 -333
70 -12 75 28 148 101 186 41 22 122 20 165 -3z m3106 -277 c59 -20 251 -139
264 -164 17 -31 2 -47 -103 -114 -141 -90 -167 -100 -264 -100 -80 -1 -83 0
-117 33 -20 20 -36 45 -36 57 0 22 2 23 150 26 136 3 151 5 170 24 32 31 30
82 -4 111 -26 22 -34 23 -186 23 -154 0 -160 1 -171 22 -10 19 -8 25 16 44 64
51 192 68 281 38z m-376 -420 c91 -46 127 -161 77 -249 -53 -94 -170 -122
-257 -62 -54 36 -73 70 -78 136 -4 52 -1 67 22 106 48 82 152 112 236 69z
m-2538 -161 c14 -13 18 -32 18 -91 0 -67 -2 -73 -17 -67 -142 54 -292 69 -423
41 -155 -33 -314 -134 -407 -259 -54 -73 -106 -180 -123 -257 -7 -30 -14 -61
-16 -67 -2 -9 -28 -13 -84 -13 -93 0 -90 -7 -60 118 62 260 246 479 491 585
l74 32 265 -3 c226 -3 267 -5 282 -19z m2123 5 c2 -7 5 -34 8 -60 5 -48 5 -48
-27 -48 -28 0 -95 -13 -138 -26 -16 -5 -18 2 -18 50 0 79 19 96 105 96 44 0
67 -4 70 -12z m-793 -55 c14 -12 18 -31 18 -78 0 -88 -10 -93 -96 -50 -97 48
-209 75 -314 75 -77 0 -135 -10 -259 -46 -23 -7 -24 -6 -19 39 9 81 -8 77 341
77 275 0 313 -2 329 -17z m1524 -250 c59 -81 109 -193 134 -295 30 -126 34
-119 -62 -116 l-81 3 -17 70 c-27 117 -115 277 -183 333 -13 11 -7 21 42 70
l56 58 33 -30 c19 -17 54 -59 78 -93z m-3008 32 c55 -13 182 -68 182 -79 0 -8
-55 -142 -60 -146 -3 -2 -35 11 -72 29 -148 73 -307 53 -427 -55 -46 -41 -111
-145 -111 -178 0 -13 -14 -16 -86 -16 l-86 0 6 38 c10 53 60 157 104 215 122
161 348 239 550 192z m1217 0 c78 -20 188 -74 181 -88 -3 -7 -17 -41 -32 -77
-14 -36 -28 -66 -29 -68 -1 -2 -23 10 -49 26 -65 42 -121 55 -218 51 -66 -3
-95 -10 -141 -32 -80 -40 -147 -110 -183 -191 l-28 -66 -82 0 -82 0 9 43 c13
61 71 175 116 226 130 152 350 224 538 176z m1226 -19 c38 -19 88 -37 112 -41
106 -18 256 -202 283 -347 l6 -38 -86 0 c-72 0 -86 3 -86 16 0 31 -63 134
-106 173 -186 172 -483 121 -594 -102 -16 -33 -30 -66 -30 -74 0 -10 -21 -13
-85 -13 -47 0 -85 4 -85 8 0 18 33 118 42 130 6 6 22 12 37 12 87 0 208 109
239 214 l18 61 64 17 c36 9 96 17 133 17 59 1 79 -4 138 -33z m-876 -166 c11
-17 37 -42 58 -57 26 -18 36 -31 32 -42 -12 -30 -35 -125 -35 -143 0 -16 -10
-18 -79 -18 -91 0 -93 3 -80 76 15 80 64 214 78 214 3 0 15 -14 26 -30z
m-1142 -25 c20 -4 37 -10 37 -14 0 -3 -9 -28 -19 -56 -10 -27 -24 -76 -31
-107 l-11 -58 -80 0 -79 0 0 28 c0 35 33 163 54 215 l16 37 38 -19 c21 -11 55
-22 75 -26z m-437 -125 c44 -24 94 -80 94 -104 0 -3 -92 -6 -205 -6 -159 0
-205 3 -205 13 0 7 13 29 30 49 68 82 191 103 286 48z m1192 14 c43 -18 88
-58 108 -96 l15 -28 -211 0 -211 0 15 28 c20 37 64 78 106 96 46 20 131 20
178 0z m1227 -5 c45 -21 105 -82 105 -106 0 -10 -46 -13 -205 -13 -113 0 -205
3 -205 8 0 4 11 24 25 44 54 80 186 111 280 67z m1077 -299 c18 -22 19 -36 16
-160 -3 -115 -7 -141 -25 -176 -31 -57 -78 -103 -138 -130 l-50 -24 -521 0
c-512 0 -522 0 -548 -21 -33 -26 -36 -79 -6 -109 19 -19 33 -20 380 -20 198 0
360 -2 360 -5 0 -14 -197 -285 -227 -313 -74 -65 17 -62 -1633 -62 -1650 0
-1559 -3 -1633 62 -30 27 -227 299 -227 314 0 2 611 4 1357 4 l1357 0 23 22
c28 26 30 67 4 99 l-19 24 -1539 5 -1538 5 -40 22 c-62 33 -121 103 -139 164
-19 61 -22 259 -5 290 6 11 20 24 32 29 13 5 1034 8 2380 7 l2359 -2 20 -25z"/>
</g>
</svg>
